<svg width="319" height="379" viewBox="0 0 319 379" fill="none" xmlns="http://www.w3.org/2000/svg">
<path d="M239.36 378.641C235.137 378.642 230.952 377.859 227.016 376.329C216.144 372.146 207.055 364.941 198.275 357.969C186.886 348.931 175.124 339.608 159.539 337.194C145.892 335.064 131.237 335.903 117.06 336.613C106.843 337.351 96.594 337.549 86.356 337.207C69.1189 336.29 53.444 330.286 38.2728 324.489C26.4715 319.97 14.2699 315.296 1.3066 312.984L0.777222 312.894V312.352C0.84178 259.905 0.777222 206.579 0.777222 155.01C0.777222 119.115 0.777222 83.2165 0.777222 47.3134V46.8614L1.1904 46.7065C12.3074 42.6006 22.5334 33.5495 32.4367 24.7566C47.3239 11.5738 62.7405 -2.04807 81.5657 0.766677C96.9694 3.09078 109.223 13.5234 121.063 23.6204C132.683 33.4978 144.639 43.711 159.798 46.6678C172.555 49.1597 187.003 48.2817 200.973 47.4166C209.327 46.9002 217.965 46.3708 225.919 46.6161C245.428 47.223 262.665 53.4335 279.321 59.4374C291.6 63.8532 304.293 68.4756 318.056 70.8643L318.586 70.9676V71.497C318.586 104.99 318.586 138.483 318.586 171.976C318.586 225.908 318.586 281.725 318.586 336.535V337.013L318.134 337.155C307.805 340.435 297.475 348.001 286.591 356.019C271.316 367.188 255.68 378.641 239.36 378.641ZM139.346 334.521C146.18 334.455 153.01 334.922 159.772 335.916C175.653 338.395 187.558 347.833 199.075 356.962C207.778 363.87 216.79 371.01 227.481 375.129C247.701 382.876 267.068 368.673 285.79 354.999C296.662 347.046 306.927 339.505 317.269 336.096C317.333 281.39 317.269 225.779 317.269 172.002C317.269 138.689 317.269 105.377 317.269 72.0651C303.647 69.586 291.071 65.054 278.895 60.677C261.568 54.4277 245.196 48.5271 225.893 47.9331C218.004 47.6878 209.766 48.2043 201.064 48.7336C187.016 49.5987 172.477 50.4896 159.565 47.9589C144.084 44.8989 131.973 34.5695 120.249 24.6275C108.009 14.1948 96.44 4.34322 81.3979 2.07076C63.1537 -0.666519 47.9824 12.7616 33.3147 25.7508C23.4502 34.4791 13.2628 43.5044 2.09421 47.7007C2.09421 83.4403 2.09421 119.188 2.09421 154.945C2.09421 206.334 2.09421 259.53 2.09421 311.745C15.0059 314.108 27.0654 318.743 38.7634 323.211C53.8314 328.982 69.4158 334.947 86.4593 335.851C96.6455 336.191 106.842 335.997 117.008 335.27C124.446 334.934 131.896 334.521 139.333 334.521H139.346Z" fill="white"/>
<path d="M65.6585 305.599C51.2878 305.599 40.3903 299.944 28.886 293.979C20.403 289.576 11.6489 285.031 1.2937 282.913L1.55193 281.622C12.075 283.778 20.9195 288.362 29.4799 292.817C41.2167 298.911 52.2949 304.682 67.053 304.282C84.0706 303.843 101.295 299.711 117.951 295.709C131.573 292.442 145.647 289.059 159.604 287.691C215.486 282.216 268.45 284.669 317.902 287.691L317.824 288.982C268.424 285.999 215.525 283.546 159.733 288.982C145.866 290.337 131.831 293.707 118.261 296.961C101.476 300.977 84.2385 305.134 67.0788 305.573L65.6585 305.599Z" fill="white"/>
<path d="M68.796 267.2C54.4253 267.2 42.7531 260.589 30.4483 253.63C21.3326 248.465 11.9071 243.132 1.26785 240.718L1.55191 239.427C12.3719 241.841 21.8878 247.174 31.0939 252.429C44.3929 259.969 56.9173 267.071 72.9278 265.65C88.9383 264.23 104.678 256.987 119.797 250.014C132.619 244.101 145.866 237.993 159.539 235.269C166.441 233.775 173.252 231.891 179.94 229.627C186.888 227.269 193.972 225.333 201.154 223.829C224.976 219.336 251.819 225.585 277.785 231.576C291.988 234.869 305.3 238.032 317.927 239.323L317.785 240.615C305.08 239.22 291.678 236.108 277.488 232.868C251.664 226.851 224.95 220.64 201.399 225.121C194.267 226.618 187.23 228.541 180.327 230.879C173.597 233.16 166.743 235.056 159.798 236.56C146.266 239.246 133.083 245.327 120.34 251.215C105.117 258.239 89.3515 265.495 73.044 266.954C71.5979 267.135 70.2163 267.2 68.796 267.2Z" fill="white"/>
<path d="M98.9578 230.827C88.8221 230.827 78.5444 225.74 69.2609 221.144C67.6469 220.343 66.0717 219.556 64.5223 218.82C60.4938 216.896 56.6074 214.946 52.8114 213.138C35.5355 204.668 20.6096 197.347 1.31952 192.583L1.6294 191.292C20.9969 196.095 36.7621 203.79 53.3795 211.951C57.1755 213.81 61.049 215.708 65.0775 217.632C66.6269 218.368 68.215 219.155 69.8419 219.956C81.6045 225.779 94.9294 232.377 107.286 228.181C119.19 224.139 125.001 213.745 131.147 202.757C137.745 190.969 144.562 178.793 159.552 175.501C172.296 172.699 187.274 177.993 201.761 183.106C210.437 186.179 218.636 189.071 225.996 190.117C247.003 193.112 269.379 192.454 291.019 191.821C299.903 191.55 309.096 191.279 317.914 191.279V192.57C309.109 192.57 299.928 192.841 291.058 193.112C269.354 193.745 246.926 194.404 225.815 191.395C218.326 190.336 210.076 187.418 201.283 184.319C186.977 179.271 172.167 173.99 159.798 176.766C145.362 179.93 138.687 191.86 132.244 203.39C126.24 214.107 120.043 225.198 107.712 229.394C104.894 230.354 101.935 230.839 98.9578 230.827Z" fill="white"/>
<path d="M87.6471 182.267C70.8619 182.267 53.4311 171.86 36.5297 161.75C24.1732 154.364 12.5139 147.392 1.26785 144.371L1.60356 143.079C13.0175 146.152 24.7542 153.176 37.1882 160.614C56.4396 172.118 76.3365 184.022 94.981 180.214C107.893 177.631 117.602 168.903 127.932 159.723C137.357 151.356 147.093 142.692 159.475 138.922C166.835 136.688 174.31 134.119 182.238 131.407C197.732 126.114 213.678 120.639 228.72 117.708C249.224 113.718 267.636 122.305 285.429 130.62C295.926 135.513 306.772 140.575 318.018 143.067L317.734 144.358C306.358 141.775 295.435 136.74 284.886 131.821C266.461 123.234 249.069 115.126 228.979 119.038C214.001 121.943 197.991 127.405 182.651 132.686C174.711 135.397 167.157 137.966 159.836 140.213C147.725 143.893 138.093 152.453 128.848 160.743C118.842 169.639 108.5 178.819 95.278 181.531C92.7651 182.028 90.2089 182.275 87.6471 182.267Z" fill="white"/>
<path d="M82.2113 112.337C65.7489 112.337 48.9379 107.831 32.6046 103.454C22.3183 100.499 11.8842 98.0856 1.34537 96.223L1.55195 94.9318C12.1344 96.8001 22.6116 99.2222 32.9403 102.188C51.1845 107.082 70.0485 112.13 88.2282 110.813C103.102 109.729 118.635 105.494 133.664 101.388C142.225 99.0507 151.069 96.6362 159.488 94.9318C172.684 92.2075 184.846 86.7975 196.609 81.5811C206.848 77.0362 217.436 72.3234 228.695 69.3796C249.508 63.9567 267.843 74.867 285.571 85.4159C296.042 91.6393 306.862 98.0823 318.005 101L317.669 102.291C306.358 99.3218 295.448 92.8401 284.912 86.5651C267.404 76.1453 249.315 65.3769 229.017 70.6707C217.862 73.5888 207.326 78.2757 197.138 82.7948C185.311 88.0499 173.084 93.4857 159.694 96.2359C151.263 97.9661 142.444 100.381 133.871 102.692C118.79 106.811 103.18 111.071 88.2024 112.169C86.2914 112.259 84.2514 112.337 82.2113 112.337Z" fill="white"/>
<path d="M265.596 368.298C261.878 347.201 256.481 327.523 250.774 306.709C249.056 300.447 247.274 293.979 245.609 287.523C244.912 284.94 244.059 282.035 243.156 279.027C239.837 267.987 236.08 255.463 237.475 245.159C238.934 234.43 245.002 226.102 250.864 218.045C256.726 209.988 262.691 201.828 264.215 191.227C268.282 162.989 266.952 134.17 265.674 106.307C264.873 88.9149 264.034 70.9418 264.537 53.369H265.829C265.325 70.8773 266.151 88.8375 266.952 106.191C268.243 134.119 269.534 163.002 265.493 191.408C263.931 202.331 257.823 210.776 251.91 218.807C245.996 226.838 240.16 234.908 238.753 245.314C237.397 255.347 241.116 267.729 244.395 278.639C245.299 281.661 246.151 284.527 246.861 287.174C248.566 293.63 250.335 300.086 252.026 306.348C257.746 327.2 263.156 346.904 266.887 368.066L265.596 368.298Z" fill="white"/>
<path d="M212.839 367.846C209.172 346.361 203.698 326.361 197.9 305.186C196.652 300.589 195.395 295.967 194.13 291.319C193.368 288.491 192.529 285.625 191.625 282.59C187.855 269.834 183.581 255.36 186.06 242.564C188.049 232.338 193.536 223.765 198.843 215.45C204.149 207.134 209.882 198.213 211.754 187.651C217.152 157.424 215.305 125.804 213.536 95.2159C212.62 79.4119 211.664 63.0657 211.754 47.2747H213.046C212.955 63.0399 213.898 79.3603 214.827 95.1384C216.609 125.804 218.443 157.502 213.033 187.87C211.096 198.69 205.415 207.561 199.914 216.147C194.672 224.333 189.249 232.803 187.325 242.784C184.911 255.36 189.133 269.563 192.878 282.229C193.781 285.263 194.634 288.143 195.395 290.983C196.652 295.631 197.909 300.249 199.166 304.837C204.963 326.051 210.45 346.077 214.13 367.627L212.839 367.846Z" fill="white"/>
<path d="M160.314 47.3264H159.023V336.548H160.314V47.3264Z" fill="white"/>
<path d="M106.253 336.587C105.982 326.542 101.243 318.007 96.6595 309.757C91.0429 299.647 85.2456 289.201 87.8925 276.186C90.2037 264.785 97.7183 255.941 104.988 247.393C112.735 238.29 120.727 228.878 122.38 216.405C123.864 205.12 119.965 192.88 116.182 181.04C113.749 174.124 111.867 167.026 110.553 159.813C105.272 124.564 104.419 87.1203 103.58 50.9159C103.296 38.1591 102.986 24.9763 102.496 12.2711H103.787C104.277 24.9892 104.587 38.1849 104.871 51.0063C105.711 87.159 106.563 124.603 111.831 159.736C113.141 166.877 115.006 173.905 117.409 180.756C121.282 192.725 125.156 205.107 123.658 216.676C121.954 229.588 113.832 239.104 105.969 248.336C98.8029 256.767 91.4045 265.483 89.1836 276.561C86.6013 289.137 92.0629 298.911 97.8087 309.266C102.47 317.659 107.286 326.335 107.57 336.691L106.253 336.587Z" fill="white"/>
<path d="M54.8127 330.454H53.5215C53.5861 320.706 48.6022 313.359 43.7861 306.258C38.0662 297.813 32.1656 289.098 34.8899 276.561C37.2786 265.56 44.8836 257.529 52.2304 249.769C59.9774 241.531 68.073 232.984 69.8807 220.963C71.6496 209.11 67.5566 195.811 63.6056 182.951C61.1782 175.023 58.8799 167.547 57.8857 160.446C52.8114 124.293 51.8172 86.2681 50.8488 49.4697C50.526 37.0357 50.1903 24.1886 49.6997 11.7675H50.9908C51.4815 24.1886 51.8172 37.0357 52.14 49.4697C53.1084 86.2422 54.1026 124.267 59.1639 160.304C60.1452 167.302 62.4306 174.739 64.8451 182.602C68.8348 195.604 72.9665 209.058 71.1589 221.195C69.2867 233.655 61.1007 242.319 53.16 250.686C45.9424 258.329 38.4665 266.18 36.1424 276.871C33.56 288.904 39.0217 297.013 44.8449 305.612C49.7771 312.804 54.8773 320.318 54.8127 330.454Z" fill="white"/>
</svg>
